<svg width="49" height="30" viewBox="0 0 49 30" fill="none" xmlns="http://www.w3.org/2000/svg">
<path d="M8.96 0.919999C10.08 0.546666 11.0933 0.359999 12 0.359999C13.3867 0.359999 14.4667 0.853333 15.24 1.84C16.0133 2.8 16.6133 4.17333 17.04 5.96C17.1733 6.49333 17.44 7.66666 17.84 9.48C18.2667 11.2933 18.6133 12.76 18.88 13.88C19.7067 17.3733 20.4533 20.08 21.12 22C21.8133 23.92 22.9067 25.4533 24.4 26.6C24.08 27.4 23.5467 28.04 22.8 28.52C22.08 29 21.2933 29.24 20.44 29.24C18.4933 29.24 17.0667 27.7733 16.16 24.84C15.7333 23.48 15.3467 22.1467 15 20.84C14.0667 21.16 12.9067 21.32 11.52 21.32C10.16 21.32 8.48 21.1733 6.48 20.88C5.65333 24.1067 5.24 26.5333 5.24 28.16C5.24 28.5067 5.25333 28.76 5.28 28.92C4.93333 28.9733 4.34667 29 3.52 29C2.69333 29 1.96 28.7467 1.32 28.24C0.706667 27.7067 0.4 26.96 0.4 26C0.4 24.6667 1.68 20.76 4.24 14.28C6.8 7.8 8.37333 3.34667 8.96 0.919999ZM7.4 17.52C8.46667 17.6533 9.54667 17.72 10.64 17.72C11.76 17.72 12.9467 17.6 14.2 17.36C13.96 16.2667 13.1467 12.08 11.76 4.8C10.1067 9.09333 8.65333 13.3333 7.4 17.52ZM39.1694 0.119998C41.4894 0.119998 43.516 0.799998 45.2494 2.16C46.9827 3.52 47.8494 5.28 47.8494 7.44C47.8494 8.58667 47.5294 9.53333 46.8894 10.28C46.2494 11.0267 45.4627 11.4 44.5294 11.4C43.596 11.4 42.8494 11.28 42.2894 11.04C42.3694 10.6133 42.4094 10.16 42.4094 9.68C42.3827 8 41.9694 6.64 41.1694 5.6C40.3694 4.53333 39.196 4 37.6494 4C36.1294 4 34.716 4.49333 33.4094 5.48C32.636 6.6 32.036 8.06667 31.6094 9.88C31.1827 11.6933 30.9694 13.48 30.9694 15.24C30.9694 18.1733 31.5294 20.64 32.6494 22.64C33.796 24.6133 35.5694 25.6 37.9694 25.6C40.1827 25.6 41.676 24.76 42.4494 23.08C43.1694 21.6133 43.5294 19.6667 43.5294 17.24C44.8894 17.24 46.0227 17.4933 46.9294 18C47.836 18.48 48.2894 19.28 48.2894 20.4C48.2894 23.0133 47.1427 25.1867 44.8494 26.92C42.556 28.6267 39.9694 29.48 37.0894 29.48C33.3294 29.48 30.476 28.24 28.5294 25.76C26.5827 23.2533 25.6094 19.8667 25.6094 15.6C25.6094 11.3333 26.8227 7.69333 29.2494 4.68C31.7027 1.64 35.0094 0.119998 39.1694 0.119998Z" fill="#FDA522"/>
</svg>
